<svg width="1067" height="732" viewBox="0 0 1067 732" fill="none" xmlns="http://www.w3.org/2000/svg">
<path d="M748.959 103.33C746.396 102.915 741.676 102.959 738.556 103.457C731.46 104.661 718.221 109.949 710.67 114.634C707.508 116.569 704.777 118.139 704.549 118C704.397 117.907 704.287 116.378 704.468 114.714C704.745 110.498 703.124 102.724 701.451 99.8243C700.606 98.4737 698.376 96.487 696.4 95.2815C693.131 93.2876 692.337 93.221 687.715 94.4728C681.501 96.111 676.415 100.003 671.642 106.801C665.296 115.667 666.322 115.353 658.72 110.716C649.218 104.92 641.698 103.569 635.839 106.677C630.242 109.526 628.72 114.757 631.256 122.568C632.093 124.958 633.99 128.516 635.625 130.453C638.772 134.356 653.968 146.549 662.085 151.709C678.851 162.353 740.681 198.293 743.958 199.248C748.94 200.826 759.343 198.819 765.083 195.222C769.933 192.229 774.921 185.249 775.244 180.958C775.903 170.815 769.115 163.647 752.697 157.391C748.631 155.85 745.206 154.283 745.071 153.992C745.058 153.671 747.307 151.18 750.139 148.419C760.513 138.251 765.752 126.414 763.869 117.018C762.295 109.168 757.7 104.903 748.959 103.33ZM757.341 115.751C761.119 123.066 755.88 134.903 743.864 146.053C738.078 151.606 737.538 152.32 737.551 154.521C737.739 157.976 738.271 158.3 751.902 163.483C759.959 166.518 761.876 167.479 764.984 170.419C769.246 174.376 770.409 178.112 768.878 182.503C767.145 187.396 763.224 190.747 756.824 192.689C746.49 195.781 749.534 197.116 707.755 171.736C687.412 159.432 665.456 146.353 658.856 142.64C645.426 135.075 641.224 131.363 637.582 124.339C636.377 122.038 635.519 118.487 635.687 116.502C635.821 113.034 635.96 112.805 638.459 111.615C642.997 109.477 648.089 110.704 657.211 116.268C663.064 119.838 665.758 121.064 666.784 120.75C667.611 120.42 670.739 117.003 673.718 112.974C682.575 101.36 689.282 97.2037 694.375 100.31C697.72 102.351 699.468 111.455 698.048 119.254C697.168 124.459 697.236 125.544 698.832 126.518C700.428 127.492 702.037 126.907 709.833 122.162C721.42 115.136 725.037 113.48 734.743 110.735C746.529 107.485 753.91 109.064 757.341 115.751Z" fill="url(#paint0_linear_35_592)"/>
<path d="M686.292 175.974C682.036 177.137 674.81 181.289 673.65 183.192C672.396 185.246 674.584 186.789 677.721 186.093C684.514 184.703 692.904 178.129 690.982 175.808C690.589 175.255 688.466 175.317 686.292 175.974Z" fill="url(#paint1_linear_35_592)"/>
<path d="M714.702 195.913C713.554 196.257 710.746 197.781 708.26 199.292C700.11 204.447 699.892 208.908 708.014 205.51C716.089 202.188 722.005 193.687 714.702 195.913Z" fill="url(#paint2_linear_35_592)"/>
<path d="M645.82 157.342C642.852 157.933 636.837 161.468 635.816 163.142C634.841 164.739 635.809 166.06 637.992 166.243C642.328 166.487 652.069 159.066 649.485 157.49C648.877 157.119 647.243 157.062 645.82 157.342Z" fill="url(#paint3_linear_35_592)"/>
<path d="M675.841 204.051C673.055 204.857 669.162 206.45 667.183 207.643C664.266 209.518 663.819 210.081 664.267 211.398C664.998 213.619 667.806 213.974 672.277 212.63C676.549 211.269 681.436 207.36 681.913 205.04C682.342 202.797 681.396 202.637 675.841 204.051Z" fill="url(#paint4_linear_35_592)"/>
<path d="M640.566 183.055C639.147 182.816 633.132 186.351 632.064 188.101C631.693 188.709 631.824 189.52 632.356 189.845C634.181 190.958 636.967 190.152 640.103 187.575C643.669 184.635 643.8 183.567 640.566 183.055Z" fill="url(#paint5_linear_35_592)"/>
<path d="M369.102 130.878C339.41 136.276 333.303 157.931 355.653 178.677C370.727 192.594 396.325 205.145 415.557 208.007C422.834 209.047 433.619 208.462 439.077 206.706C447.133 204.17 452.136 197.536 450.967 191.033C449.148 181.213 436.543 171.523 419.845 167.231C409.385 164.565 392.557 164.305 391.712 166.841C391.388 167.816 392.687 168.012 403.602 168.857C414.583 169.702 422.769 171.783 430.89 175.75C440.961 180.693 446.809 187.196 446.809 193.439C446.809 200.073 437.972 204.69 425.108 204.69C403.862 204.69 374.625 191.618 357.472 174.45C349.351 166.321 346.492 161.248 346.492 154.615C346.427 151.103 346.752 149.867 348.246 147.266C356.823 132.634 388.399 130.228 425.368 141.413C445.574 147.461 460.258 153.639 472.407 161.053C480.984 166.321 487.741 169.052 483.388 165.475C479.879 162.549 463.961 152.794 457.529 149.607C441.091 141.413 416.012 133.544 398.015 130.878C389.763 129.707 375.535 129.707 369.102 130.878Z" fill="url(#paint6_linear_35_592)"/>
<path d="M389.308 152.729C384.046 153.51 378.978 156.111 377.354 158.777C375.34 162.029 375.534 166.646 377.873 170.288C382.032 176.921 394.051 183.945 406.656 187.131C412.763 188.692 423.029 189.603 423.679 188.562C424.328 187.522 423.419 187.196 417.831 186.416C402.563 184.335 382.616 173.54 380.472 166.256C379.368 162.679 380.472 160.663 384.695 158.582C387.424 157.216 389.049 156.956 396.39 156.696C405.551 156.371 411.074 157.151 422.769 160.208C437.323 164.045 454.54 171.589 465.91 179.132C473.642 184.205 482.738 193.114 485.402 198.122C488.91 204.69 487.611 211.063 481.763 216.071C470.003 226.151 445.899 228.817 416.856 223.159C402.173 220.298 397.43 218.607 370.921 206.641C367.543 205.145 364.684 204.105 364.489 204.3C363.515 205.21 365.399 206.901 371.506 210.478C384.176 218.022 401.003 224.135 417.181 227.061C442.066 231.679 462.402 230.508 476.371 223.615C482.608 220.493 486.506 217.307 488.91 213.274C490.405 210.673 490.664 209.503 490.664 205.341C490.664 201.243 490.34 199.813 488.715 196.561C486.051 191.228 476.241 181.474 468.314 176.206C444.275 160.338 408.475 149.673 389.308 152.729Z" fill="url(#paint7_linear_35_592)"/>
<path d="M332.783 183.944C331.873 185.31 333.238 190.513 335.707 195.455C339.605 203.194 348.051 212.624 348.051 209.177C348.051 208.722 345.972 205.21 343.438 201.308C340.905 197.471 337.721 191.813 336.292 188.757C334.862 185.7 333.563 183.229 333.433 183.229C333.303 183.229 332.978 183.554 332.783 183.944Z" fill="url(#paint8_linear_35_592)"/>
<path d="M505.608 198.187C505.413 198.512 505.738 200.463 506.323 202.414C507.297 205.796 507.297 206.316 506.258 209.438C505.673 211.323 504.309 214.315 503.269 216.136C501.19 219.843 500.865 221.599 502.359 221.599C503.529 221.599 506.842 217.176 508.922 212.819C511.131 208.202 511.001 204.43 508.532 200.593C506.518 197.342 506.258 197.146 505.608 198.187Z" fill="url(#paint9_linear_35_592)"/>
<path d="M768.632 265.115C767.55 265.804 763.308 269.075 759.261 272.339L751.861 278.258L746.782 276.157C739.923 273.337 729.745 270.438 726.888 270.537C725.395 270.589 724.177 271.087 723.427 271.959C721.679 274.037 723.187 276.262 732.811 285.688C737.591 290.402 741.376 294.565 741.262 295.024C741.146 295.419 738.498 297.789 735.4 300.304C732.302 302.819 728.774 306.066 727.523 307.476C725.272 310.027 725.272 310.027 725.14 317.45C724.913 329.626 720.503 344.876 714.11 355.445C705.568 369.667 690.316 385.36 673.317 397.534C665.643 403.072 663.701 405.157 664.48 407.017C665.471 409.325 672.418 407.196 690.597 399.015C703.718 393.093 723.516 381.016 736.62 370.865C749.914 360.576 762.612 346.209 767.328 336.024C768.113 334.305 769.476 332.37 770.302 331.821C771.76 330.729 772.587 328.358 775.342 315.963L776.522 310.651L780.266 309.87C787.231 308.261 794.361 305.801 795.682 304.518C796.436 303.776 796.978 302.521 796.948 301.676C796.88 299.727 795.156 298.745 783.883 294.257C779.268 292.401 775.174 290.591 774.84 290.342C774.437 289.966 774.371 286.194 774.703 280.781C775.205 270.938 774.512 265.952 772.514 264.59C770.982 263.537 770.982 263.537 768.632 265.115ZM770.977 274.599C771.074 277.394 770.984 282.277 770.768 285.408L770.447 291.146L772.394 292.9C773.532 293.837 777.896 295.962 782.048 297.575C789.825 300.623 792.273 301.839 791.709 302.444C791.519 302.581 787.791 303.817 783.347 305.013C775.045 307.449 772.881 308.761 772.347 312.098C771.426 317.401 769.586 326.184 769.103 327.242C768.557 328.368 768.425 328.307 767.197 326.658C766.447 325.643 764.103 321.82 761.959 318.121C759.815 314.421 757.214 310.672 756.204 309.666C753.989 307.661 751.45 307.554 741.957 309.381C735.175 310.658 730.312 311.023 730.285 310.243C730.276 309.983 733.678 306.871 737.848 303.407C744.293 298.042 745.421 296.832 745.369 295.337C745.29 293.062 743.115 290.34 735.23 282.35C729.705 276.751 728.345 275.041 729.384 275.005C729.579 274.998 734.642 276.644 740.56 278.586L751.35 282.245L755.672 279.426C758.025 277.913 762.146 274.906 764.676 272.866C767.268 270.759 769.746 269.111 770.075 269.23C770.534 269.344 770.871 271.544 770.977 274.599ZM749.452 319.272C741.889 344.783 725.186 367.358 701.952 383.458C696.177 387.499 686.354 392.916 686.324 392.071C686.32 391.941 689.594 388.899 693.563 385.247C702.765 376.923 711.646 366.853 716.453 359.268C723.91 347.491 728.43 333.538 728.538 321.691L728.686 314.723L733.618 314.487C736.345 314.392 741.202 313.832 744.368 313.267C747.598 312.699 750.451 312.469 750.72 312.72C751.051 312.904 750.441 315.919 749.452 319.272ZM757.844 319.435C758.676 320.903 760.737 324.085 762.381 326.5C764.09 328.913 765.466 331.078 765.473 331.273C765.5 332.053 760.254 340.109 755.782 346.121C744.292 361.553 724.619 377.204 700.237 390.22C687.853 396.768 683.366 398.616 691.902 393.569C706.747 384.853 716.119 377.695 726.104 367.586C739.543 353.974 749.447 335.93 753.006 318.627C753.947 313.909 753.944 313.844 755.165 315.299C755.777 316.058 757.011 317.902 757.844 319.435Z" fill="url(#paint10_linear_35_592)"/>
<path d="M708.627 293.167C708.506 293.431 708.255 299.296 708.103 306.134C707.732 321.634 706.404 332.027 703.116 344.049C700.406 353.97 700.154 356.061 701.517 356.013C703.4 355.948 706.146 350.777 708.899 342.091C711.129 335.181 712.036 329.488 712.347 319.717C712.85 306.164 710.59 289.78 708.627 293.167Z" fill="url(#paint11_linear_35_592)"/>
<path d="M789.606 318.59C789.115 319.453 787.731 322.625 786.471 325.662C781.856 336.885 774.016 348.871 763.016 361.552C757.013 368.398 755.977 370.386 758.314 370.305C759.938 370.249 767.953 363.332 772.515 358.033C776.64 353.269 783.606 342.355 786.446 336.14C790.193 328.005 792.867 317.045 791.049 317.109C790.725 317.12 790.098 317.792 789.606 318.59Z" fill="url(#paint12_linear_35_592)"/>
<path d="M686.29 370.533C683.539 373.688 683.083 375.525 684.966 375.46C686.2 375.417 690.75 369.793 690.7 368.363C690.641 366.673 688.85 367.516 686.29 370.533Z" fill="url(#paint13_linear_35_592)"/>
<path d="M734.174 380.906C730.982 382.578 728.951 384.016 728.974 384.666C729.021 386.03 730.316 385.855 735.248 383.731C739.922 381.682 742.199 379.846 741.511 378.763C740.758 377.683 739.726 377.914 734.174 380.906Z" fill="url(#paint14_linear_35_592)"/>
<path d="M238.365 356.04C235.636 361.041 236.061 366.981 239.678 373.911C247.312 388.444 270.304 399.637 292.358 399.495C298.56 399.445 298.341 399.362 298.031 401.827C297.631 404.835 299.759 406.35 303.709 405.836C306.291 405.423 306.821 405.603 309.063 407.836C312.428 411.185 314.792 416.372 315.86 422.65C316.63 427.622 316.589 429.012 315.423 444.099C314.678 453.2 315.057 456.29 317.344 460.813C320.916 468.016 326.863 470.951 336.819 470.448C338.941 470.285 345.829 469.183 352.149 467.848C367.137 464.773 369.04 464.527 373.914 464.631C378.983 464.674 383.515 466.864 387.758 471.103C392.244 475.568 394.864 480.332 397.866 489.304C399.901 495.369 400.623 496.932 401.53 497.081C403.034 497.282 403.029 495.605 401.522 489.161C399.587 480.784 397.778 477.039 392.902 470.693C389.179 465.84 387.929 464.656 384.985 463.007C377.569 458.805 372.552 458.724 354.483 462.41C338.868 465.615 334.072 466.176 329.294 465.203C324.478 464.177 321.888 461.794 320.044 456.553C318.818 452.95 318.803 447.917 320.058 434.847C321.114 423.842 318.836 414.429 313.605 408.258C311.953 406.402 310.096 404.373 309.521 403.905C308.612 403.197 308.596 402.728 309.461 401.706C311.193 399.662 311.39 397.039 309.911 394.979C308.659 393.236 308.621 393.183 312.316 387.968C325.68 368.927 331.038 345.866 324.944 333.59C319.61 322.929 309.065 321.053 298.427 328.851C292.659 333.072 288.694 338.801 284.951 348.293C283.225 352.574 281.513 356.205 281.083 356.273C280.637 356.433 277.476 355.26 273.958 353.703C258.224 346.826 242.874 347.839 238.365 356.04ZM250.689 354.157C256.572 353.216 261.909 354.188 270.849 357.616C275.493 359.406 280.038 360.946 281.013 360.967C284.051 361.187 285.964 359.173 287.785 354.023C289.945 348.23 293.641 341.013 296.043 338.008C298.829 334.647 304.446 330.774 307.791 329.973C316.624 327.795 322.12 334.336 322.164 346.874C322.211 357.968 316.186 375.423 308.122 387.697C306.392 390.3 304.389 392.859 303.703 393.351C301.961 394.602 289.594 394.755 282.323 393.65C271.514 391.964 261.159 387.79 252.816 381.851C248.599 378.874 243.214 371.372 242.068 366.991C240.273 360.034 243.425 355.29 250.689 354.157Z" fill="url(#paint15_linear_35_592)"/>
<path d="M417.647 572.242C415.799 571.825 414.118 572.873 414.924 573.99C415.57 574.995 419.904 575.48 420.984 574.726C421.718 574.128 419.836 572.737 417.647 572.242Z" fill="url(#paint16_linear_35_592)"/>
<path d="M343.875 526.85C343.38 527.218 342.408 528.84 341.74 530.594C339.858 535.227 339.528 535.473 335.912 535.093C330.336 534.457 329.94 536.162 334.611 540.369L337.442 542.897L335.916 547.7C335.031 550.333 334.508 552.901 334.786 553.412C335.369 554.849 338.849 553.945 342.508 551.422L345.822 549.055L347.842 550.701C349.314 551.885 350.155 552.154 351.028 551.811C352.119 551.382 352.171 550.626 351.644 547.405C350.956 543.279 351.242 542.527 354.47 539.942C357.368 537.602 357.052 536.351 353.415 536.115C351.94 535.959 350.395 535.675 350.075 535.452C349.702 535.192 348.751 533.261 347.965 531.207C346.34 527.062 345.3 525.941 343.875 526.85ZM345.851 534.014L346.407 535.829L344.789 535.651C343.351 535.442 343.228 535.277 343.603 533.716C343.841 532.693 344.112 531.85 344.223 531.69C344.595 531.157 345.347 532.236 345.851 534.014ZM346.653 542.975C345.389 544.789 345.298 544.806 343.273 543.394C341.887 542.428 341.273 541.604 341.469 540.869C341.924 538.966 342.546 538.528 344.671 538.661C347.552 538.846 348.326 540.575 346.653 542.975ZM338.261 539.108C338.075 539.375 337.676 539.493 337.356 539.27C337.09 539.085 337.009 538.632 337.195 538.365C337.418 538.045 337.833 538.017 338.1 538.203C338.42 538.426 338.484 538.788 338.261 539.108ZM341.274 548.421C338.45 550.655 337.917 550.283 339.318 547.137C340.076 545.367 340.294 545.281 341.52 546.136C342.799 547.028 342.778 547.171 341.274 548.421Z" fill="url(#paint17_linear_35_592)"/>
<path d="M388.955 559.775C387.645 559.496 386.506 559.654 386.406 560.138C385.94 561.716 392.04 563.986 393.651 562.81C394.55 562.089 391.863 560.375 388.955 559.775Z" fill="url(#paint18_linear_35_592)"/>
<path d="M375.438 553.604C373.11 552.853 372.226 552.872 371.849 553.64C371.356 554.802 371.979 555.157 377.115 556.993C379.139 557.611 380.667 557.804 381.002 557.324C381.671 556.363 379.502 554.931 375.438 553.604Z" fill="url(#paint19_linear_35_592)"/>
<path d="M358.799 546.684C356.002 545.924 354.283 546.232 354.525 547.59C354.702 548.585 363.981 551.406 364.88 550.685C365.779 549.964 362.133 547.581 358.799 546.684Z" fill="url(#paint20_linear_35_592)"/>
<path d="M351.42 553.749C350.473 554.199 352.263 558.221 354.257 560.245C358.033 564.145 357.418 559.119 353.557 555C352.746 554.118 351.856 553.577 351.42 553.749Z" fill="url(#paint21_linear_35_592)"/>
<path d="M239.155 476.773C238.858 477.2 238.259 479.082 237.804 480.984C237.349 482.887 236.825 484.661 236.639 484.928C236.453 485.195 234.792 485.306 232.902 485.177C228.024 484.79 227.653 486.117 231.801 489.483L235.027 492.128L233.81 496.828C232.942 500.346 232.875 501.805 233.654 502.506C234.784 503.611 236.156 502.665 238.759 498.93L240.507 496.423L244.456 498.938C249.616 502.216 250.568 501.532 248.174 496.217C247.228 494.052 246.495 492.035 246.521 491.657C246.547 491.279 247.882 490.386 249.521 489.626C254.001 487.516 253.125 486.272 247.039 485.914L243.258 485.657L242.236 482.012C241.684 479.963 241.399 478.099 241.547 477.886C241.696 477.672 241.365 477.125 240.779 476.716C240.193 476.307 239.453 476.346 239.155 476.773ZM241.122 491.223C239.735 492.872 239.213 492.826 238.906 491.106C238.637 489.333 240.27 488.014 241.363 489.172C241.891 489.778 241.823 490.444 241.122 491.223ZM244.269 495.002C244.243 495.38 243.95 495.573 243.684 495.387C243.364 495.164 243.284 494.712 243.469 494.445C243.693 494.125 243.948 493.986 244.055 494.06C244.214 494.171 244.332 494.571 244.269 495.002Z" fill="url(#paint22_linear_35_592)"/>
<path d="M320.218 532.953C317.699 532.704 318.18 533.832 321.645 536.247C323.564 537.584 325.258 538.448 325.407 538.234C326.485 536.687 323.008 533.154 320.218 532.953Z" fill="url(#paint23_linear_35_592)"/>
<path d="M307.928 525.815C306.607 525.211 305.563 525.118 305.048 525.63C304.33 526.319 304.592 526.739 306.777 528.263C308.163 529.228 309.98 530.257 310.785 530.58C312.521 531.156 313.648 529.881 312.209 528.878C311.622 528.469 310.951 527.842 310.599 527.438C310.3 527.071 309.09 526.308 307.928 525.815Z" fill="url(#paint24_linear_35_592)"/>
<path d="M382.322 580.201L379.113 581.056L376.393 578.368C372.916 574.835 369.782 572.968 368.825 573.886C368.437 574.329 368.351 576.726 368.728 579.367L369.294 584.121L366.41 584.965C364.813 585.437 363.302 586.128 363.079 586.448C362.559 587.195 364.637 588.644 368.196 590.015L371.094 591.084L371.949 595.88C373.162 602.434 374.254 602.798 377.729 597.927L380.385 594.229L382.878 594.857C386.303 595.738 387.115 594.005 384.841 590.677C382.797 587.587 382.763 586.613 384.957 583.465C387.337 580.05 386.457 579.04 382.322 580.201ZM375.227 581.518C375.622 582.428 375.511 582.588 374.063 582.847C372.578 583.16 372.508 583.032 372.089 580.679L371.601 578.199L373.2 579.313C374.106 579.945 374.986 580.954 375.227 581.518ZM379.26 586.866C379.373 587.5 379.082 588.486 378.599 589.179C377.52 590.727 374.628 590.217 373.587 588.302C372.775 586.627 373.349 585.917 375.866 585.373C378.113 584.877 378.97 585.237 379.26 586.866ZM376.132 594.991C375.351 596.111 375.298 596.074 374.955 594.408C374.676 593.104 374.829 592.656 375.495 592.724C376.81 592.768 377.062 593.657 376.132 594.991Z" fill="url(#paint25_linear_35_592)"/>
<path d="M289.509 514.405C288.865 514.193 288.157 514.413 287.929 514.968C287.568 515.826 288.027 516.304 290.233 517.684C293.367 519.551 295.023 519.674 294.355 518.02C293.927 516.929 291.512 515.167 289.509 514.405Z" fill="url(#paint26_linear_35_592)"/>
<path d="M272.774 504.327C272.45 504.338 271.955 504.707 271.658 505.134C271.323 505.614 272.08 506.459 274.586 508.205C277.997 510.582 280.01 510.876 279.203 508.966C278.722 507.838 273.626 504.127 272.774 504.327Z" fill="url(#paint27_linear_35_592)"/>
<path d="M328.944 545.773C326.512 546.535 325.496 547.651 326.562 548.394C327.469 549.025 331.258 548.02 332.002 546.953C332.857 545.726 331.157 545.096 328.944 545.773Z" fill="url(#paint28_linear_35_592)"/>
<path d="M359.918 567.123C359.137 568.243 362.517 574.642 363.694 574.431C365.051 574.188 364.845 571.984 363.276 569.463C361.722 567.033 360.55 566.216 359.918 567.123Z" fill="url(#paint29_linear_35_592)"/>
<path d="M258.952 497.229C257.63 496.625 256.64 496.569 256.305 497.049C255.115 498.757 261.835 502.41 263.345 500.925C264.228 500.114 263.076 499.152 258.952 497.229Z" fill="url(#paint30_linear_35_592)"/>
<path d="M319.551 549.136C316.656 549.654 313.246 551.479 313.407 552.384C313.729 554.194 320.994 552.52 322.593 550.226C323.56 548.838 322.718 548.569 319.551 549.136Z" fill="url(#paint31_linear_35_592)"/>
<path d="M248.602 507.534C248.044 508.334 248.998 511.853 249.962 512.287C251.534 512.986 252.192 511.701 251.097 509.749C249.954 507.525 249.123 506.787 248.602 507.534Z" fill="url(#paint32_linear_35_592)"/>
<path d="M356.551 583.088C353.213 583.219 354.532 585.644 357.94 585.641C358.877 585.66 359.819 585.445 360.042 585.125C360.525 584.431 358.175 583.031 356.551 583.088Z" fill="url(#paint33_linear_35_592)"/>
<path d="M346.816 581.376C344.174 580.962 342.057 582.181 343.55 583.221C344.989 584.224 350.064 584.67 350.659 583.816C351.402 582.749 349.926 581.799 346.816 581.376Z" fill="url(#paint34_linear_35_592)"/>
<path d="M252.947 517.776C252.075 518.119 252.781 523.923 253.847 524.666C255.073 525.52 255.932 523.265 255.184 521.158C254.028 517.816 253.767 517.396 252.947 517.776Z" fill="url(#paint35_linear_35_592)"/>
<path d="M299.291 554.911C295.757 555.778 294.587 556.548 295.121 557.713C295.378 558.367 303.814 556.716 304.409 555.863C305.264 554.636 302.463 554.11 299.291 554.911Z" fill="url(#paint36_linear_35_592)"/>
<path d="M255.111 532.284C254.367 533.351 255.396 537.556 256.585 538.464C258.024 539.467 258.581 537.873 257.847 535.063C257.113 532.252 255.966 531.057 255.111 532.284Z" fill="url(#paint37_linear_35_592)"/>
<path d="M312.962 573.476C309.026 572.873 307.223 573.756 309.355 575.242C310.901 576.32 318.143 577.404 319.079 576.63C320.143 575.786 316.951 574.116 312.962 573.476Z" fill="url(#paint38_linear_35_592)"/>
<path d="M286.124 558.576C282.728 558.904 278.919 560.847 279.161 562.205C279.403 563.562 280.143 563.523 284.868 561.743C287.72 560.719 288.927 559.896 288.814 559.262C288.702 558.629 287.876 558.45 286.124 558.576Z" fill="url(#paint39_linear_35_592)"/>
<path d="M298.367 569.645C293.233 568.604 291.391 568.747 292.351 570.209C293.558 572.001 303.708 573.685 303.759 572.135C303.837 571.001 302.979 570.641 298.367 569.645Z" fill="url(#paint40_linear_35_592)"/>
<path d="M267.715 553.514L265.246 554.33L262.921 551.758C261.689 550.344 260.062 548.814 259.316 548.294C257.344 546.92 256.213 549.223 256.927 552.971L257.529 556.085L253.782 556.803C251.429 557.224 249.827 557.931 249.578 558.63C249.106 559.648 249.511 560.089 253.727 562.79L258.316 565.75L258.139 568.163C257.424 577.257 260.745 579.651 263.539 572.006L264.726 568.712L266.335 569.357C271.072 571.311 271.753 571.469 272.274 570.722C272.572 570.295 271.807 568.098 270.573 565.89C268.005 561.167 267.929 560.48 269.788 557.813C272.577 553.811 271.834 552.263 267.715 553.514ZM261.297 555.224C261.111 555.491 260.819 555.683 260.712 555.609C260.552 555.497 260.471 555.045 260.498 554.667C260.561 554.235 260.816 554.096 261.083 554.282C261.402 554.505 261.52 554.904 261.297 555.224ZM264.265 559.829C264.378 560.462 263.863 561.769 263.157 562.782L261.818 564.703L261.302 561.807C260.867 559.363 261.021 558.916 262.091 558.631C263.597 558.174 264.007 558.381 264.265 559.829ZM257.708 561.283C257.554 561.731 256.888 561.663 256.035 561.069C254.756 560.177 254.724 559.996 255.794 559.711C257.172 559.325 258.041 560.009 257.708 561.283Z" fill="url(#paint41_linear_35_592)"/>
<path d="M280.394 564.412C277.95 564.056 276.35 565.556 278.278 566.425C280.314 567.368 285.506 568.213 285.915 567.626C286.473 566.825 283.073 564.773 280.394 564.412Z" fill="url(#paint42_linear_35_592)"/>
<path d="M793.716 628.255C796.013 636.794 800.483 644.082 807.984 651.199C814.729 657.601 818.747 659.98 827.186 662.614C832.008 664.145 834.591 664.447 842.127 664.253C850.765 664.031 851.411 664.106 854.358 666.007C865.731 673.485 885.953 673.149 906.202 665.226C924.495 658.042 949.303 641.726 962.369 628.24C966.844 623.619 967.821 622.306 967.613 621.392C967.154 619.702 966.205 620.325 958.794 626.906C941.551 642.431 921.523 655.222 904.045 661.925C890.666 667.142 877.013 668.965 866.707 666.977C862.591 666.117 855.949 663.575 855.882 662.795C855.874 662.52 857.817 661.228 860.172 659.88C865.198 656.946 867.481 654.635 869.579 650.535C871.764 646.249 871.467 642.026 868.714 638.786C865.869 635.549 864.237 634.718 860.601 634.581C856.459 634.412 852.785 636.299 849.487 640.246C845.122 645.508 844.171 651.234 846.665 656.825C847.35 658.371 847.667 659.926 847.309 660.303C846.415 661.246 836.296 661.138 831.486 660.066C817.474 657.07 804.389 645.728 797.647 630.821C796.277 627.729 794.83 625.192 794.507 625.154C793.305 624.909 793.099 625.788 793.716 628.255ZM855.533 639.355C858.295 637.767 863.265 637.915 865.152 639.706C868.832 643.197 868.229 648.179 863.351 653.224C859.326 657.465 853.414 659.916 851.527 658.126C849.169 655.887 848.299 650.852 849.53 647.004C850.852 643.154 852.276 641.37 855.533 639.355Z" fill="url(#paint43_linear_35_592)"/>
<path d="M888.873 655.05C890.1 656.214 897.633 655.929 903.619 654.533C911.522 652.629 917.552 649.393 926.19 642.274C930.15 639.046 931.482 637.264 930.539 636.369C929.784 635.653 927.695 636.626 921.683 640.505C910.968 647.355 902.468 651.022 893.812 652.303C888.819 653.029 887.552 653.797 888.873 655.05Z" fill="url(#paint44_linear_35_592)"/>
<path d="M977.973 571.928C978.144 573.165 980.222 576.928 984.352 583.535L987.236 588.242L982.96 598.606C978.036 610.503 977.618 612.077 978.892 613.285C980.401 614.718 983.129 613.544 990.435 608.207C994.269 605.396 997.699 603.008 998.156 602.905C999.115 602.65 1003.03 606.366 1009.06 613.337C1014.7 619.859 1015.4 620.163 1018.22 617.194C1019.2 616.157 1024.3 607.198 1029.46 597.318C1034.71 587.435 1040.01 577.597 1041.33 575.357C1044.15 570.594 1044.73 568.097 1043.32 567.121C1042.71 566.723 1038.67 566.735 1034.17 567.127C1029.67 567.518 1019.61 567.823 1011.79 567.748C987.927 567.58 985.997 567.63 983.108 567.934C980.22 568.238 977.788 570.14 977.973 571.928ZM994.974 571.491C1001.18 571.561 1010.29 571.603 1015.16 571.57C1020.03 571.536 1024.31 571.656 1024.64 571.786C1025.24 572 1021.97 573.372 1001.95 581.243C993.119 584.689 990.245 585.544 989.813 584.866C985 576.805 982.722 572.404 983.169 571.933C983.437 571.65 988.72 571.468 994.974 571.491ZM1013.24 580.585C1030.82 574.248 1033.74 573.437 1030.82 575.857C1021.01 583.925 1003.9 595.814 997.681 598.871C995.458 599.985 991.972 602.052 989.898 603.577C987.821 605.01 985.786 606.303 985.374 606.36C984.962 606.417 985.492 603.874 986.606 600.811C987.628 597.75 988.858 593.902 989.276 592.328L990.075 589.503L993.254 588.042C995.073 587.259 1004.04 583.856 1013.24 580.585ZM1007.84 596.954C1011.86 594.414 1032.03 579.964 1033.28 578.644C1034.49 577.464 1033.15 580.579 1029.69 587.151C1027.68 590.881 1023.93 598.518 1021.32 604.102C1018.75 609.64 1016.39 614.39 1016.13 614.673C1015.63 615.191 1014.03 613.577 1005.45 603.913C1003.84 602.115 1002.73 600.442 1003 600.159C1003.23 599.924 1005.44 598.441 1007.84 596.954Z" fill="url(#paint45_linear_35_592)"/>
<path d="M350.742 658.02C349.902 658.372 346.446 661.23 342.995 664.437C339.545 667.645 335.839 670.748 334.725 671.286L332.676 672.285L327.954 661.02C323.282 649.875 323.207 649.695 321.29 649.16C317.346 647.995 314.374 650.157 303.911 661.869C300.197 665.962 296.917 669.239 296.662 669.135C296.407 669.031 296.237 660.719 296.354 650.736C296.446 640.694 296.409 631.692 296.247 630.632C295.671 627.07 291.761 624.975 288.402 626.383C286.063 627.363 282.734 631.366 271.327 646.714C264.98 655.292 258.878 663.275 257.699 664.332C253.575 668.456 253.11 665.833 255.063 647.614C257.428 624.995 257.431 618.442 254.959 620.112C253.8 620.88 253.071 624.356 250.877 639.647C247.655 661.568 248.18 669.379 252.976 671.737C256.615 673.522 260.704 669.484 274.616 650.69C288.726 631.531 289.984 630.158 290.863 632.255C291.115 632.854 291.177 639.732 291.001 647.555C290.561 669.72 290.994 674.118 293.908 675.855C296.176 677.229 298.899 675.313 306.491 666.847C315.806 656.602 318.293 654.291 319.399 654.743C319.995 654.987 321.125 657.683 322.931 663.337C327.302 676.792 329.773 679.491 335.59 677.052C339.489 675.418 342.01 673.022 347.939 665.465C352.815 659.265 353.68 656.788 350.742 658.02Z" fill="url(#paint46_linear_35_592)"/>
<path d="M817.843 319.543C816.371 325.932 818.338 337.075 821.66 341.291C826.367 347.322 826.805 347.603 830.079 348.16C836.463 349.169 843.92 345.616 848.483 339.589C851.829 335.097 852.636 330.828 850.632 327.69C849.907 326.53 848.984 325.32 848.546 325.039C846.869 324.04 841.599 323.824 837.518 324.525L833.222 325.319L831.407 320.681C829.988 316.992 829.135 315.672 827.438 314.583C824.592 312.757 822.932 312.695 820.887 314.317C818.717 316.013 818.597 316.321 817.843 319.543ZM824.686 318.993C825.288 319.38 826.299 321.417 826.895 323.498C829.006 330.565 829.792 331.147 836.712 329.875C844.8 328.348 847.012 328.996 846.247 332.596C845.284 337.228 839.54 341.725 832.713 343.212L828.008 344.283L826.29 342.023C823.891 339.018 822.672 335.379 822.275 330.338C821.589 322.255 822.606 317.659 824.686 318.993Z" fill="url(#paint47_linear_35_592)"/>
<path d="M762.884 407.484C760.062 416.095 763.68 425.75 771.672 430.878L775.558 433.371L769.545 442.019C759.138 457.034 746.775 469.558 733.571 478.455C729.438 481.284 726.039 483.812 726.098 484.081C726.349 485.015 729.883 483.963 734.044 481.692C748.246 474.13 764.769 458.254 775.865 441.443L780.992 433.693L784.534 433.11C796.993 430.914 807.244 419.273 812.6 401.172C814.622 394.287 816.555 384.411 818.103 373.207C819.264 364.534 819.288 361.847 818.302 361.215C817.372 360.618 816.166 364.785 813.897 376.992C808.41 405.895 802.423 418.959 791.466 425.438C788.523 427.255 784.005 428.756 783.184 428.229C782.965 428.089 783.058 427.222 783.4 426.207C783.762 425.281 784.332 421.864 784.727 418.72C785.539 412.757 784.845 407.217 782.797 403.664C781.196 400.861 777.091 398.227 774.204 398.15C769.602 397.977 764.697 402.009 762.884 407.484ZM772.41 403.716C774.308 402.926 776.767 404.272 778.348 406.985C780.599 410.823 780.373 420.327 777.924 426.553C777.336 427.951 776.996 428.119 775.582 427.674C771.209 426.181 767.153 419.255 767.192 413.413C767.156 409.376 769.599 404.845 772.41 403.716Z" fill="url(#paint48_linear_35_592)"/>
<path d="M352.407 248.568C352.829 249.621 354.055 253.839 355.07 257.957C357.932 269.55 362.311 277.235 366.614 278.296C368.328 278.761 368.961 278.6 370.81 277.336C372.961 275.896 375.725 271.538 376.129 268.98C376.289 268.299 376.717 267.643 377.103 267.585C378.141 267.495 388.292 274.64 391.811 277.921C394.635 280.519 397.144 284.083 397.405 285.818C397.647 287.424 394.423 291.786 390.366 295.419C381.494 303.324 378.199 308.09 378.117 313.228C378.085 321.314 389.084 327.543 412.315 332.458C424.612 335.075 427.233 336.323 425.707 338.853C425.344 339.499 422.171 342.013 418.657 344.447C407.758 352 404.679 356.012 405.52 361.601C406.371 367.255 413.83 373.557 423.095 376.565C428.819 378.332 434.839 379.003 435.713 377.82C436.533 376.711 435.561 375.938 432.735 375.509C424.171 374.104 413.275 368.122 411.164 363.709C409.118 359.286 409.764 358.335 421.247 350.299C429.281 344.688 431.547 342.705 432.444 340.796C435.387 334.571 431.283 330.458 419.465 327.965C403.418 324.467 397.456 322.867 392.87 320.798C387.933 318.584 384.861 316.089 384.552 314.033C384.175 311.528 386.852 307.905 393.915 301.521C402.878 293.339 404.394 290.745 403.534 285.027C403.099 282.136 402.433 280.331 400.863 278.202C398.373 274.766 390.055 268.002 384.987 265.348L381.34 263.4L385.162 261.708C389.673 259.78 391.406 257.746 392.314 253.733C394.78 242.586 381.015 235.459 362.495 238.246C355.163 239.349 352.157 240.787 351.579 243.502C351.098 245.545 351.249 246.114 352.407 248.568ZM361.982 243.579C377.811 241.263 390.434 246.919 385.816 254.25C384.534 256.217 384.35 256.311 377.865 257.352C374.209 257.968 370.874 258.535 370.434 258.667C369.36 258.96 369.779 260.869 371.271 262.484C372.355 263.569 372.516 264.202 372.183 266.354C371.887 268.764 369.162 273.379 368.005 273.553C367.297 273.66 364.241 269.52 363.034 266.745C362.436 265.39 360.862 260.173 359.574 255.111C358.231 250.122 357.005 245.905 356.857 245.796C355.821 245.032 357.673 244.227 361.982 243.579Z" fill="url(#paint49_linear_35_592)"/>
<path d="M846.251 506.369C844.637 506.343 842.021 507.17 839.224 508.701C836.824 509.975 834.686 511.045 834.551 511.1C834.417 511.156 833.575 508.957 832.701 506.299C830.947 500.893 828.894 498.502 825.284 497.601C822.66 496.955 818.353 498.637 816.218 501.09C811.399 506.724 812.109 519.069 817.84 528.714C821.687 535.08 821.754 534.707 813.111 545.031L805.7 553.841L805.572 547.953C805.343 537.924 799.898 527.753 794.744 527.835C792.72 527.884 790.859 529.627 790.381 532.056C789.787 534.816 790.358 541.779 791.409 544.332C792.473 547.069 796.614 553.691 799.078 556.699L800.733 558.657L797.316 561.89C789.529 569.252 773.877 578.82 758.678 585.593C750.804 588.998 749.479 589.828 750.361 590.595C752.272 592.259 769.989 585.265 782.387 577.951C790.271 573.347 799.881 566.365 802.272 563.618C804.108 561.509 805.631 561.541 810.068 563.766C818.46 567.88 830.242 567.704 837.032 563.269C840.916 560.786 841.181 555.93 837.459 554.07C833.732 552.118 824.969 551.992 815.459 553.714L812.183 554.311L815.336 550.59C817.038 548.536 819.916 544.834 821.727 542.358C824.922 537.896 825.056 537.841 828.93 536.557C835.059 534.563 839.999 531.362 844.99 526.223C850.493 520.495 852.155 517.2 851.926 512.516C851.727 508.291 849.987 506.431 846.251 506.369ZM848.02 513.341C848.095 517.114 843.357 523.25 837.203 527.549C831.439 531.498 826.148 533.618 825.454 532.238C825.184 531.658 823.926 529.442 822.717 527.268C819.323 521.469 818.228 518.274 817.839 513.279C817.418 507.825 818.688 504.189 821.675 502.737C825.859 500.602 828.404 504.111 828.843 512.512C829.325 520.864 830.947 521.672 835.821 516.172C837.7 514.014 841.718 511.476 844.523 510.728C846.509 510.129 848.01 511.176 848.02 513.341ZM833.883 560.355C831.643 561.94 820.075 562.561 815.523 561.358C813.413 560.814 811.712 560.195 811.693 559.92C811.586 558.361 826.33 556.366 831.914 557.175C835.731 557.738 836.301 558.666 833.883 560.355ZM799.482 539.116C800.305 541.04 801.101 544.578 801.259 546.871L801.591 551.041L800 550C796.76 547.783 793.864 539.83 794.753 535.345L795.195 533.056L796.567 534.251C797.351 534.933 798.652 537.1 799.482 539.116Z" fill="url(#paint50_linear_35_592)"/>
<path d="M875.804 420.28C874.894 420.995 873.14 423.271 871.97 425.287L869.826 428.994L862.809 429.514C854.623 430.164 852.934 430.685 851.959 432.831C850.789 435.367 851.699 437.123 856.507 442C859.041 444.472 861.12 446.943 861.12 447.398C861.12 447.853 860.34 450.845 859.431 453.966C858.456 457.153 857.871 460.275 858.131 460.86C858.716 462.486 861.12 461.835 867.292 458.324C870.151 456.698 872.815 455.332 873.14 455.332C873.53 455.332 875.544 456.243 877.688 457.283C882.236 459.494 884.445 459.689 886.524 457.998C887.823 456.958 888.083 456.047 888.278 451.885L888.538 446.943L892.566 444.407C897.764 440.96 899.973 438.944 900.493 436.798C901.272 433.546 897.244 431.335 890.552 431.27C886.589 431.27 884.64 430.295 884.12 428.213C883.405 425.287 881.521 421.19 880.287 420.019C878.857 418.589 877.883 418.654 875.804 420.28ZM878.013 429.059C878.013 429.579 877.558 429.969 877.038 429.969C875.934 429.969 875.869 429.839 876.453 428.409C876.908 427.238 878.013 427.628 878.013 429.059ZM866.318 436.147C866.318 436.993 864.758 440.375 864.369 440.375C863.589 440.375 859.821 437.123 859.821 436.473C859.821 436.147 860.47 435.822 861.315 435.692C862.679 435.497 866.318 435.822 866.318 436.147ZM878.208 436.408C879.897 437.058 880.222 437.773 880.936 441.675C881.326 443.886 881.261 444.016 877.818 445.902L874.244 447.788L871.645 446.032L868.982 444.277L869.956 441.48C871.71 436.408 874.179 434.912 878.208 436.408ZM891.267 438.033C890.877 439.074 887.888 440.505 887.109 440.049C886.849 439.919 886.459 439.139 886.264 438.424C885.939 437.253 886.264 437.123 888.798 437.123C890.877 437.123 891.527 437.318 891.267 438.033ZM866.967 451.04C866.967 451.235 866.708 451.56 866.318 451.755C865.993 451.95 865.668 451.82 865.668 451.495C865.668 451.105 865.993 450.78 866.318 450.78C866.708 450.78 866.967 450.91 866.967 451.04Z" fill="url(#paint51_linear_35_592)"/>
<path d="M174.528 579.616C174.49 580.773 175.102 583.58 175.892 585.773L177.349 589.8L173.23 595.505C168.458 602.188 167.769 603.816 168.784 605.943C169.972 608.471 171.901 608.905 178.729 608.365C182.251 608.017 185.481 608.016 185.829 608.309C186.177 608.602 187.965 611.125 189.768 613.83C191.58 616.627 193.592 619.084 194.207 619.262C195.828 619.861 196.878 617.603 198.163 610.618C198.759 607.384 199.429 604.467 199.638 604.218C199.889 603.92 201.882 602.964 204.058 601.993C208.678 599.936 210.249 598.371 210.294 595.692C210.334 594.027 209.804 593.242 206.745 590.414L203.13 587.034L203.782 582.318C204.49 576.122 204.369 573.134 203.061 571.355C201.075 568.665 196.79 570.324 192.432 575.404C189.881 578.437 187.88 579.301 185.953 578.359C183.253 577.022 178.905 575.827 177.214 576.018C175.199 576.191 174.622 576.978 174.528 579.616ZM182.668 583.577C183.066 583.912 183.072 584.511 182.738 584.909C182.027 585.754 181.885 585.72 181.167 584.351C180.564 583.25 181.573 582.656 182.668 583.577ZM180.565 597.09C181.212 597.634 182.796 601.004 182.545 601.302C182.043 601.899 177.129 602.69 176.632 602.271C176.383 602.062 176.552 601.355 176.996 600.625C177.725 599.455 180.316 596.88 180.565 597.09ZM188.418 588.158C190.003 587.284 190.759 587.496 194.205 589.46C196.148 590.585 196.206 590.719 195.433 594.568L194.576 598.517L191.559 599.375L188.501 600.284L186.988 597.738C184.235 593.13 184.68 590.278 188.418 588.158ZM198.068 579.21C198.613 580.179 197.784 583.387 196.934 583.69C196.667 583.806 195.819 583.602 195.146 583.29C194.041 582.785 194.151 582.453 195.782 580.514C197.12 578.923 197.688 578.551 198.068 579.21ZM192.38 606.179C192.529 606.304 192.611 606.712 192.509 607.136C192.449 607.51 192.141 607.675 191.892 607.466C191.593 607.215 191.554 606.757 191.763 606.508C192.014 606.21 192.281 606.095 192.38 606.179Z" fill="url(#paint52_linear_35_592)"/>
<path d="M260.123 255.791C260.085 256.948 260.698 259.756 261.488 261.948L262.945 265.975L258.826 271.68C254.054 278.363 253.365 279.991 254.38 282.118C255.568 284.646 257.497 285.08 264.325 284.54C267.847 284.192 271.076 284.192 271.425 284.485C271.773 284.778 273.561 287.3 275.364 290.005C277.175 292.802 279.188 295.259 279.803 295.437C281.423 296.036 282.473 293.778 283.759 286.794C284.355 283.559 285.024 280.642 285.234 280.393C285.485 280.095 287.478 279.14 289.654 278.169C294.274 276.111 295.845 274.546 295.889 271.867C295.93 270.203 295.4 269.418 292.34 266.589L288.725 263.209L289.377 258.494C290.086 252.297 289.965 249.309 288.657 247.53C286.67 244.84 282.385 246.5 278.028 251.579C275.477 254.612 273.475 255.476 271.548 254.534C268.849 253.197 264.5 252.002 262.81 252.193C260.795 252.366 260.217 253.154 260.123 255.791ZM268.264 259.752C268.662 260.087 268.668 260.686 268.333 261.084C267.622 261.929 267.481 261.895 266.763 260.527C266.16 259.425 267.169 258.831 268.264 259.752ZM266.161 273.265C266.808 273.809 268.392 277.179 268.141 277.477C267.639 278.074 262.725 278.865 262.227 278.446C261.978 278.237 262.148 277.53 262.592 276.8C263.321 275.631 265.912 273.056 266.161 273.265ZM274.013 264.333C275.598 263.459 276.355 263.671 279.801 265.636C281.744 266.761 281.802 266.894 281.028 270.743L280.171 274.692L277.155 275.551L274.096 276.459L272.584 273.913C269.831 269.305 270.276 266.453 274.013 264.333ZM283.664 255.386C284.209 256.354 283.38 259.562 282.53 259.866C282.263 259.981 281.415 259.777 280.742 259.466C279.637 258.961 279.747 258.628 281.378 256.689C282.716 255.098 283.284 254.726 283.664 255.386ZM277.976 282.354C278.125 282.479 278.207 282.888 278.105 283.312C278.045 283.686 277.737 283.851 277.488 283.641C277.189 283.39 277.149 282.932 277.358 282.684C277.609 282.385 277.876 282.27 277.976 282.354Z" fill="url(#paint53_linear_35_592)"/>
<path d="M122.756 623.969C121.395 624.088 119.062 624.956 117.552 625.852C115.243 627.215 114.577 628.077 113.058 631.606C111.524 634.99 111.314 636.3 111.529 639.64L111.845 643.643L106.881 644.504C100.549 645.691 92.5869 645.855 84.4317 645.046C79.1446 644.539 76.5343 643.916 69.751 641.466C65.2439 639.792 60.9266 637.981 60.1419 637.481C59.3797 636.921 58.2608 636.574 57.6603 636.698C56.6648 636.953 56.6195 637.075 57.2075 637.917C58.8949 640.279 62.6883 642.381 70.1415 645.08C76.7803 647.546 79.1853 648.162 85.3321 648.78C93.5255 649.672 101.305 649.44 108.709 648.166C113.795 647.35 113.795 647.35 114.826 649.051C116.538 651.907 122.037 657.626 126.046 660.641C133.318 666.256 141.267 669.486 157.355 673.38L160.537 674.146L161.186 677.994C162.972 688.301 173.881 699.983 185.879 704.44C194.467 707.63 206.851 708.622 219.548 707.094C226.649 706.263 231.171 705.098 231.578 704.001C231.941 703.025 230.526 702.916 221.484 703.373C205.257 704.145 197.984 703.386 188.848 699.993C178.616 696.192 171.587 690.113 167.722 681.67C164.508 674.649 164.705 674.306 171.656 674.252C188.684 674.125 201.855 665.905 199.7 656.78C198.337 650.932 192.679 648.067 183.957 648.782C178.042 649.221 171.403 652.167 167.322 656.062C164.986 658.247 163.813 660.1 162.097 663.972L159.83 668.957L155.439 668.09C153.05 667.619 147.942 666.068 144.044 664.621C133.325 660.639 125.728 655.528 120.728 649.023L118.506 646.047L122.501 644.062C127.081 641.809 131.434 637.738 132.567 634.689C133.563 632.007 132.814 628.052 131.038 626.49C129.063 624.716 125.5 623.671 122.756 623.969ZM128.892 631.521C128.893 634.504 125.223 638.414 120.483 640.538C117.27 641.911 116.706 641.563 116.286 638.216C115.835 634.58 118.264 630.279 121.432 629.027C124.911 627.684 128.854 629.009 128.892 631.521ZM194.726 656.736C195.284 657.845 195.547 659.192 195.343 659.74C194.007 663.337 186.414 667.732 179.755 668.866C176.114 669.525 167.346 669.807 166.128 669.354C165.763 669.219 166.108 667.543 166.832 665.592C169.255 659.069 176.39 654.227 184.807 653.399C190.335 652.885 193.486 653.917 194.726 656.736Z" fill="url(#paint54_linear_35_592)"/>
<path d="M1004.73 351.051C994.54 346.983 979.431 348.484 968.322 354.647C964.405 356.868 963.493 356.972 959.846 355.191C955.121 352.934 944.976 351.208 940.738 352.029C936.789 352.767 934.551 357.019 936.157 360.719C937.504 363.786 944.56 371.734 949.855 376.261C952.207 378.177 953.129 380.032 953.429 384.106C956.059 411.451 980.45 429.268 1005.87 422.382C1014.18 420.159 1014.33 420.117 1022.58 423.482C1036.2 428.844 1045.08 427.793 1045.67 420.795C1046 416.462 1041.31 410.193 1034.83 406.474C1029.85 403.585 1029.49 403.139 1030.26 400.641C1034.85 385.358 1029.5 367.738 1017.52 358.767C1015.49 357.151 1012.99 355.276 1012.02 354.613C1011.1 353.857 1007.82 352.283 1004.73 351.051ZM1017.63 366.273C1022.32 371.443 1026.45 383.994 1025.93 391.521C1025.64 394.9 1024.5 399.151 1023.16 401.577C1020.36 406.617 1015.65 411.575 1013.5 411.721C1011.39 411.774 993.799 401.272 979.055 391.131C958.476 376.775 958.652 377.117 963.368 368.624C969.793 357.052 983.337 350.897 995.575 353.907C1002.9 355.655 1013.29 361.548 1017.63 366.273ZM958.29 366.781C955.388 372.008 954.995 372.277 953.129 371.242C950.612 369.844 944.395 363.461 942.333 360.363C941.618 359.233 941.483 357.938 942.167 357.585C944.126 356.475 955.244 357.764 958.415 359.525L961.399 361.182L958.29 366.781ZM1037.65 416.342C1039.1 418.124 1039.79 419.969 1039.24 420.519C1037.5 422.116 1031.94 421.352 1025.71 418.504L1019.9 416.009L1021.96 413.614C1026.73 408.324 1026.59 408.366 1030.97 410.799C1033.3 412.094 1036.29 414.611 1037.65 416.342ZM986.059 402.468C996.597 409.418 1005.36 415.385 1005.49 415.82C1005.91 417.033 999.145 417.793 992.43 417.361C983.052 416.672 972.753 410.831 966.888 402.935C963.013 397.609 958.962 387.545 959.999 385.678C960.258 385.212 961.895 385.999 963.698 387.366C965.407 388.682 975.521 395.518 986.059 402.468Z" fill="url(#paint55_linear_35_592)"/>
<path d="M197.155 419.827C194.426 420.998 191.112 424.965 190.658 427.631C189.358 434.264 196.245 441.158 205.796 442.979C210.409 443.824 213.463 443.174 216.062 440.703C217.946 438.882 218.271 438.166 218.271 435.565C218.271 429.842 214.307 425.485 208.59 424.9C202.093 424.314 199.364 427.826 202.093 433.419C204.497 438.361 207.29 438.231 205.926 433.289C205.536 431.793 205.406 430.297 205.601 429.972C206.771 428.086 212.618 430.688 213.723 433.614C214.632 435.89 214.567 436.28 213.073 437.776C209.239 441.613 196.375 436.801 194.621 430.818C193.971 428.737 195.79 424.965 198.259 423.469C200.014 422.363 201.378 422.168 206.121 422.233C209.239 422.298 211.968 422.168 212.163 421.973C214.437 419.697 201.573 417.876 197.155 419.827Z" fill="url(#paint56_linear_35_592)"/>
<path d="M800.155 450.827C797.426 451.998 794.112 455.965 793.658 458.631C792.358 465.264 799.245 472.158 808.796 473.979C813.409 474.824 816.463 474.174 819.062 471.703C820.946 469.882 821.271 469.166 821.271 466.565C821.271 460.842 817.307 456.485 811.59 455.9C805.093 455.314 802.364 458.826 805.093 464.419C807.497 469.361 810.29 469.231 808.926 464.289C808.536 462.793 808.406 461.297 808.601 460.972C809.771 459.086 815.618 461.688 816.723 464.614C817.632 466.89 817.567 467.28 816.073 468.776C812.239 472.613 799.375 467.801 797.621 461.818C796.971 459.737 798.79 455.965 801.259 454.469C803.014 453.363 804.378 453.168 809.121 453.233C812.239 453.298 814.968 453.168 815.163 452.973C817.437 450.697 804.573 448.876 800.155 450.827Z" fill="url(#paint57_linear_35_592)"/>
<path d="M902.155 579.827C899.426 580.998 896.112 584.965 895.658 587.631C894.358 594.264 901.245 601.158 910.796 602.979C915.409 603.824 918.463 603.174 921.062 600.703C922.946 598.882 923.271 598.166 923.271 595.565C923.271 589.842 919.307 585.485 913.59 584.9C907.093 584.314 904.364 587.826 907.093 593.419C909.497 598.361 912.29 598.231 910.926 593.289C910.536 591.793 910.406 590.297 910.601 589.972C911.771 588.086 917.618 590.688 918.723 593.614C919.632 595.89 919.567 596.28 918.073 597.776C914.239 601.613 901.375 596.801 899.621 590.818C898.971 588.737 900.79 584.965 903.259 583.469C905.014 582.363 906.378 582.168 911.121 582.233C914.239 582.298 916.968 582.168 917.163 581.973C919.437 579.697 906.573 577.876 902.155 579.827Z" fill="url(#paint58_linear_35_592)"/>
<path d="M89.6996 525.427C92.2731 526.529 92.5955 525.012 90.4827 521.704C87.727 517.385 87.6379 511.134 90.3061 506.352C92.3762 502.536 91.6875 501.02 88.6071 502.722C85.021 504.838 82.9505 509.297 83.224 514.353C83.5891 519.777 85.9773 523.82 89.6996 525.427Z" fill="url(#paint59_linear_35_592)"/>
<path d="M111.805 532.817C116.768 535.205 120.628 536.03 126.328 535.936C132.855 535.841 138.555 534.643 144.393 532.112C146.968 531.008 149.22 530.042 149.404 530.042C149.542 529.996 149.771 531.696 149.908 533.856C150.319 539.969 154.039 545.529 158.359 546.446C163.185 547.409 170.54 545.108 177.989 540.324C180.517 538.714 183.23 537.288 183.919 537.242C184.655 537.149 189.986 537.882 195.731 538.845C206.624 540.632 210.622 540.768 212.14 539.251C213.244 538.147 212.279 537.182 208.832 536.035C207.361 535.576 204.191 533.693 201.802 531.856C199.504 530.018 195.415 527.216 192.75 525.563C184.065 520.189 182.549 519.041 182.412 517.708C182.366 517.018 182.781 514.031 183.38 511.043C185.131 502.125 183.617 495.277 178.977 490.545C175.118 486.686 168.959 485.77 161.88 488.071L159.535 488.762L159.859 485.59C160.551 479.752 160.049 471.617 158.81 467.986C157.203 463.345 153.758 459.624 150.219 458.66C146.129 457.605 140.658 459.768 135.37 464.596L131.001 468.505L129.853 466.805C119.61 451.872 107.526 443.926 95.8966 444.529C91.9896 444.76 86.9328 446.693 84.8174 448.808C82.8401 450.786 80.7694 455.889 80.5838 459.474C79.936 468.851 87.1479 477.994 102.082 486.766C105.298 488.695 108.101 490.578 108.285 491.038C108.515 491.451 107.135 493.474 104.605 496.371C98.2591 503.636 96.7866 507.222 97.7028 513.749C98.7563 521.516 104.59 529.465 111.805 532.817ZM102.159 517.837C99.1752 510.439 100.418 505.98 107.5 497.887C114.123 490.346 113.939 489.886 103.003 483.272C98.3159 480.425 95.605 478.358 91.7459 474.499C87.1517 469.996 86.5086 469.077 85.2692 465.631C80.9082 453.728 90.9323 445.082 103.8 449.765C111.383 452.473 117.953 457.94 124.751 467.129C128.242 471.816 128.839 472.413 130.402 472.78C132.424 473.147 132.056 473.423 137.62 468.042C150.22 455.81 158.536 463.574 155.952 485.27C155.49 489.223 155.443 492.762 155.764 493.084C156.637 493.957 158.2 493.68 161.234 492.208C166.659 489.632 173.186 489.996 176.356 493.166C179.939 496.75 181.039 504.563 179.104 513.297C178.229 517.112 178.688 519.686 180.525 521.524C181.077 522.075 184.936 524.739 189.072 527.403C199.364 534.109 201.248 535.441 200.696 535.993C200.421 536.269 196.652 535.811 192.286 534.94C187.92 534.16 183.645 533.657 182.818 533.841C181.944 534.071 179.554 535.359 177.485 536.693C170.082 541.523 162.451 544.1 158.683 542.999C155.052 541.852 152.251 535.004 153.357 529.764C154.048 526.776 153.313 524.846 151.613 524.893C150.923 524.939 148.487 525.997 146.142 527.147C134.556 533.22 121.043 533.778 111.669 528.634C108.13 526.66 103.628 521.606 102.159 517.837Z" fill="url(#paint60_linear_35_592)"/>
<path d="M132.022 546.413C133.125 546.32 135.745 545.905 137.814 545.399L141.629 544.524L143.191 547.648C144.798 551.003 146.544 552.473 147.555 551.461C147.877 551.14 147.924 550.174 147.648 549.255C147.373 548.428 146.777 545.9 146.41 543.694C145.264 538.041 144.436 537.858 135.931 541.585C132.116 543.195 129.035 544.713 129.035 544.989C129.035 546 130.184 546.505 132.022 546.413Z" fill="url(#paint61_linear_35_592)"/>
<path d="M187.269 549.237C191.957 549.051 197.979 548.266 199.45 547.622C201.059 546.84 200.462 545.599 198.394 545.462C195.59 545.326 183.823 546.894 183.271 547.446C182.075 548.642 183.729 549.376 187.269 549.237Z" fill="url(#paint62_linear_35_592)"/>
<path d="M201.758 525.375C208.192 528.405 210.904 528.726 209.618 526.244C209.021 525.096 199.646 520.412 197.532 520.229C194.361 519.909 196.887 522.987 201.758 525.375Z" fill="url(#paint63_linear_35_592)"/>
<path d="M139.236 453.747C139.695 453.839 141.304 453.516 142.867 453.056C146.407 451.905 149.027 451.95 152.795 453.419C156.793 454.934 161.066 459.115 162.948 463.48C164.28 466.467 164.418 466.697 165.429 466.237C166.9 465.593 166.397 461.043 164.514 457.688C161.575 452.45 154.085 447.811 148.707 447.951C145.306 448.045 141.03 449.564 139.145 451.449C137.673 452.921 137.673 453.472 139.236 453.747Z" fill="url(#paint64_linear_35_592)"/>
<path d="M504.95 15.4156C501.91 16.947 498.344 20.7444 497.196 23.7614C495.354 28.6169 494.489 36.7155 495.49 40.8894C496.384 44.6205 496.066 44.9644 492.538 44.7402C485.639 44.388 479.495 47.4659 478.413 51.8716C477.594 55.1442 478.986 59.5585 482.039 63.3741C484.89 66.9039 490.808 70.9687 494.299 71.8707C496.783 72.4789 496.937 72.8432 495.418 75.1467C493.563 77.999 493.828 79.9417 496.664 83.4081C500.404 87.8615 505.499 90.7195 513.422 92.8325C524.599 95.7034 535.178 95.2403 538.727 91.6477C539.983 90.4772 543.076 83.3155 543.913 79.8381C543.946 79.6964 545.22 79.9929 546.776 80.3553C548.836 80.8647 550.224 80.7996 552.185 80.0619C561.912 76.3254 574.582 56.4354 575.813 42.8989C576.233 38.5183 574.416 30.6613 572.376 28.0071C568.967 23.5413 562.867 22.0613 558.666 24.6065C555.861 26.2821 553.475 28.5929 550.809 32.2415C549.644 33.7915 548.544 35.0582 548.292 35.1187C548.039 35.1793 547.139 33.6563 546.212 31.7386C543.2 25.3051 538.155 22.1006 532.851 23.1049C529.992 23.7233 529.836 23.6271 527.781 20.9096C525.633 18.0809 520.98 15.1169 517.349 14.1819C515.651 13.7865 508.18 13.8388 507.215 14.2708C507.04 14.3795 506.012 14.8268 504.95 15.4156ZM513.957 19.5425C517.735 19.9743 521.17 21.759 523.619 24.4488L525.739 26.883L524.129 30.479C522.099 35.1118 521.629 38.1671 522.215 42.8416C522.703 46.269 522.541 46.7091 520.694 48.757C517.446 52.2106 515.952 61.8644 517.511 68.6463C517.815 69.9111 517.898 71.0949 517.754 71.33C517.625 71.6285 515.563 71.3872 513.172 70.8904C510.781 70.3935 507.238 70.1061 505.252 70.1811C498.787 70.5272 491.587 66.9702 486.616 61.0062C483.998 57.8889 483.033 54.9772 483.92 52.8251C484.87 50.6579 490.175 49.6536 495.429 50.6678C499.786 51.5626 502.263 51.3032 502.748 49.9831C502.91 49.5431 502.465 46.5734 501.755 43.333C499.736 33.5183 501.263 25.3947 505.835 21.8911C508.582 19.6944 510.399 19.1919 513.957 19.5425ZM535.706 27.7703C538.757 28.5103 541.37 32.1638 543.156 38.2224C545.769 46.8917 547.503 46.8773 553.371 37.9135C558.168 30.6109 561.345 27.9768 564.618 28.5297C567.324 28.9508 569.05 31.4126 570.279 36.5351C571.416 41.2781 570.508 47.247 567.592 54.0319C563.788 62.9688 554.444 74.4377 550.085 75.4828C548.063 75.9675 544.568 75.6017 544.401 74.9061C544.419 74.7012 544.343 72.7131 544.348 70.505C544.381 65.3477 542.547 57.6956 540.391 53.9992C537.879 49.6527 534.202 46.856 529.703 45.9283C525.976 45.15 525.819 45.0539 525.728 43.0025C525.567 38.4269 527.255 33.2071 529.962 30.2844C532.876 27.1114 533.002 27.0811 535.706 27.7703ZM532.208 52.751C534.947 54.7024 537.118 58.462 538.316 63.458C540.026 70.8723 538.813 82.532 535.573 88.5251L534.001 91.4432L529.007 91.2361C518.956 90.8369 508.557 87.3113 502.694 82.3638C499.504 79.6508 499.161 77.6601 501.632 76.265C504.342 74.7461 507.367 74.8234 514.238 76.4529C520.748 77.9684 522.482 77.954 523.301 76.3533C523.559 75.7565 523.369 72.4582 522.915 68.8891C521.947 61.2298 522.21 56.7529 523.8 53.6299C524.78 51.5892 525.24 51.2783 527.275 51.1249C528.9 50.936 530.439 51.5033 532.208 52.751Z" fill="url(#paint65_linear_35_592)"/>
<defs>
<linearGradient id="paint0_linear_35_592" x1="667.428" y1="51.5789" x2="660.49" y2="206.193" gradientUnits="userSpaceOnUse">
<stop stop-color="#42307D"/>
<stop offset="1" stop-color="#7F56D9"/>
</linearGradient>
<linearGradient id="paint1_linear_35_592" x1="681.652" y1="170.072" x2="689.642" y2="188.021" gradientUnits="userSpaceOnUse">
<stop stop-color="#42307D"/>
<stop offset="1" stop-color="#7F56D9"/>
</linearGradient>
<linearGradient id="paint2_linear_35_592" x1="710.421" y1="191.367" x2="718.581" y2="205.848" gradientUnits="userSpaceOnUse">
<stop stop-color="#42307D"/>
<stop offset="1" stop-color="#7F56D9"/>
</linearGradient>
<linearGradient id="paint3_linear_35_592" x1="642.035" y1="152.946" x2="648.436" y2="167.55" gradientUnits="userSpaceOnUse">
<stop stop-color="#42307D"/>
<stop offset="1" stop-color="#7F56D9"/>
</linearGradient>
<linearGradient id="paint4_linear_35_592" x1="671.939" y1="197.446" x2="679.227" y2="216.171" gradientUnits="userSpaceOnUse">
<stop stop-color="#42307D"/>
<stop offset="1" stop-color="#7F56D9"/>
</linearGradient>
<linearGradient id="paint5_linear_35_592" x1="636.873" y1="180.216" x2="641.724" y2="191.369" gradientUnits="userSpaceOnUse">
<stop stop-color="#42307D"/>
<stop offset="1" stop-color="#7F56D9"/>
</linearGradient>
<linearGradient id="paint6_linear_35_592" x1="342.175" y1="130" x2="408.538" y2="250.495" gradientUnits="userSpaceOnUse">
<stop stop-color="#42307D"/>
<stop offset="1" stop-color="#7F56D9"/>
</linearGradient>
<linearGradient id="paint7_linear_35_592" x1="364.244" y1="152.207" x2="433.468" y2="264.947" gradientUnits="userSpaceOnUse">
<stop stop-color="#42307D"/>
<stop offset="1" stop-color="#7F56D9"/>
</linearGradient>
<linearGradient id="paint8_linear_35_592" x1="332.5" y1="183.229" x2="355.715" y2="196.761" gradientUnits="userSpaceOnUse">
<stop stop-color="#42307D"/>
<stop offset="1" stop-color="#7F56D9"/>
</linearGradient>
<linearGradient id="paint9_linear_35_592" x1="501.434" y1="197.626" x2="517.279" y2="203.609" gradientUnits="userSpaceOnUse">
<stop stop-color="#42307D"/>
<stop offset="1" stop-color="#7F56D9"/>
</linearGradient>
<linearGradient id="paint10_linear_35_592" x1="659.498" y1="267.737" x2="804.399" y2="398.902" gradientUnits="userSpaceOnUse">
<stop stop-color="#42307D"/>
<stop offset="1" stop-color="#7F56D9"/>
</linearGradient>
<linearGradient id="paint11_linear_35_592" x1="698.559" y1="293.085" x2="723.904" y2="297.457" gradientUnits="userSpaceOnUse">
<stop stop-color="#42307D"/>
<stop offset="1" stop-color="#7F56D9"/>
</linearGradient>
<linearGradient id="paint12_linear_35_592" x1="755.373" y1="318.35" x2="805.324" y2="350.621" gradientUnits="userSpaceOnUse">
<stop stop-color="#42307D"/>
<stop offset="1" stop-color="#7F56D9"/>
</linearGradient>
<linearGradient id="paint13_linear_35_592" x1="683.585" y1="367.729" x2="691.567" y2="374.514" gradientUnits="userSpaceOnUse">
<stop stop-color="#42307D"/>
<stop offset="1" stop-color="#7F56D9"/>
</linearGradient>
<linearGradient id="paint14_linear_35_592" x1="728.762" y1="378.579" x2="735.013" y2="389.158" gradientUnits="userSpaceOnUse">
<stop stop-color="#42307D"/>
<stop offset="1" stop-color="#7F56D9"/>
</linearGradient>
<linearGradient id="paint15_linear_35_592" x1="229.942" y1="360.822" x2="397.056" y2="325.848" gradientUnits="userSpaceOnUse">
<stop stop-color="#42307D"/>
<stop offset="1" stop-color="#7F56D9"/>
</linearGradient>
<linearGradient id="paint16_linear_35_592" x1="416.443" y1="570.677" x2="416.028" y2="576.918" gradientUnits="userSpaceOnUse">
<stop stop-color="#42307D"/>
<stop offset="1" stop-color="#7F56D9"/>
</linearGradient>
<linearGradient id="paint17_linear_35_592" x1="340.241" y1="523.158" x2="348.659" y2="559.984" gradientUnits="userSpaceOnUse">
<stop stop-color="#42307D"/>
<stop offset="1" stop-color="#7F56D9"/>
</linearGradient>
<linearGradient id="paint18_linear_35_592" x1="387.933" y1="557.898" x2="386.774" y2="563.888" gradientUnits="userSpaceOnUse">
<stop stop-color="#42307D"/>
<stop offset="1" stop-color="#7F56D9"/>
</linearGradient>
<linearGradient id="paint19_linear_35_592" x1="373.581" y1="551.129" x2="371.982" y2="558.218" gradientUnits="userSpaceOnUse">
<stop stop-color="#42307D"/>
<stop offset="1" stop-color="#7F56D9"/>
</linearGradient>
<linearGradient id="paint20_linear_35_592" x1="356.622" y1="544.002" x2="354.84" y2="551.692" gradientUnits="userSpaceOnUse">
<stop stop-color="#42307D"/>
<stop offset="1" stop-color="#7F56D9"/>
</linearGradient>
<linearGradient id="paint21_linear_35_592" x1="351.581" y1="553.433" x2="350.377" y2="560.968" gradientUnits="userSpaceOnUse">
<stop stop-color="#42307D"/>
<stop offset="1" stop-color="#7F56D9"/>
</linearGradient>
<linearGradient id="paint22_linear_35_592" x1="237.115" y1="474.162" x2="243.467" y2="509.224" gradientUnits="userSpaceOnUse">
<stop stop-color="#42307D"/>
<stop offset="1" stop-color="#7F56D9"/>
</linearGradient>
<linearGradient id="paint23_linear_35_592" x1="319.692" y1="531.732" x2="318.183" y2="536.442" gradientUnits="userSpaceOnUse">
<stop stop-color="#42307D"/>
<stop offset="1" stop-color="#7F56D9"/>
</linearGradient>
<linearGradient id="paint24_linear_35_592" x1="306.019" y1="524.167" x2="304.406" y2="529.494" gradientUnits="userSpaceOnUse">
<stop stop-color="#42307D"/>
<stop offset="1" stop-color="#7F56D9"/>
</linearGradient>
<linearGradient id="paint25_linear_35_592" x1="371.558" y1="569.96" x2="376.698" y2="604.936" gradientUnits="userSpaceOnUse">
<stop stop-color="#42307D"/>
<stop offset="1" stop-color="#7F56D9"/>
</linearGradient>
<linearGradient id="paint26_linear_35_592" x1="288.89" y1="513.55" x2="287.536" y2="518.397" gradientUnits="userSpaceOnUse">
<stop stop-color="#42307D"/>
<stop offset="1" stop-color="#7F56D9"/>
</linearGradient>
<linearGradient id="paint27_linear_35_592" x1="272.646" y1="503.716" x2="271.034" y2="508.397" gradientUnits="userSpaceOnUse">
<stop stop-color="#42307D"/>
<stop offset="1" stop-color="#7F56D9"/>
</linearGradient>
<linearGradient id="paint28_linear_35_592" x1="328.825" y1="543.646" x2="330.493" y2="550.235" gradientUnits="userSpaceOnUse">
<stop stop-color="#42307D"/>
<stop offset="1" stop-color="#7F56D9"/>
</linearGradient>
<linearGradient id="paint29_linear_35_592" x1="360.392" y1="566.443" x2="360.033" y2="574.549" gradientUnits="userSpaceOnUse">
<stop stop-color="#42307D"/>
<stop offset="1" stop-color="#7F56D9"/>
</linearGradient>
<linearGradient id="paint30_linear_35_592" x1="257.367" y1="495.525" x2="255.985" y2="501.071" gradientUnits="userSpaceOnUse">
<stop stop-color="#42307D"/>
<stop offset="1" stop-color="#7F56D9"/>
</linearGradient>
<linearGradient id="paint31_linear_35_592" x1="317.936" y1="545.646" x2="320.973" y2="555.364" gradientUnits="userSpaceOnUse">
<stop stop-color="#42307D"/>
<stop offset="1" stop-color="#7F56D9"/>
</linearGradient>
<linearGradient id="paint32_linear_35_592" x1="248.944" y1="507.044" x2="249.151" y2="513.01" gradientUnits="userSpaceOnUse">
<stop stop-color="#42307D"/>
<stop offset="1" stop-color="#7F56D9"/>
</linearGradient>
<linearGradient id="paint33_linear_35_592" x1="356.106" y1="581.73" x2="355.769" y2="587.088" gradientUnits="userSpaceOnUse">
<stop stop-color="#42307D"/>
<stop offset="1" stop-color="#7F56D9"/>
</linearGradient>
<linearGradient id="paint34_linear_35_592" x1="345.368" y1="578.997" x2="345.042" y2="586.597" gradientUnits="userSpaceOnUse">
<stop stop-color="#42307D"/>
<stop offset="1" stop-color="#7F56D9"/>
</linearGradient>
<linearGradient id="paint35_linear_35_592" x1="253.15" y1="517.403" x2="254.523" y2="525.155" gradientUnits="userSpaceOnUse">
<stop stop-color="#42307D"/>
<stop offset="1" stop-color="#7F56D9"/>
</linearGradient>
<linearGradient id="paint36_linear_35_592" x1="298.951" y1="551.25" x2="301.04" y2="561.367" gradientUnits="userSpaceOnUse">
<stop stop-color="#42307D"/>
<stop offset="1" stop-color="#7F56D9"/>
</linearGradient>
<linearGradient id="paint37_linear_35_592" x1="255.648" y1="531.512" x2="256.555" y2="539.186" gradientUnits="userSpaceOnUse">
<stop stop-color="#42307D"/>
<stop offset="1" stop-color="#7F56D9"/>
</linearGradient>
<linearGradient id="paint38_linear_35_592" x1="311.106" y1="570.162" x2="309.796" y2="579.303" gradientUnits="userSpaceOnUse">
<stop stop-color="#42307D"/>
<stop offset="1" stop-color="#7F56D9"/>
</linearGradient>
<linearGradient id="paint39_linear_35_592" x1="283.606" y1="555.389" x2="286.733" y2="565.412" gradientUnits="userSpaceOnUse">
<stop stop-color="#42307D"/>
<stop offset="1" stop-color="#7F56D9"/>
</linearGradient>
<linearGradient id="paint40_linear_35_592" x1="294.982" y1="565.311" x2="293.558" y2="575.24" gradientUnits="userSpaceOnUse">
<stop stop-color="#42307D"/>
<stop offset="1" stop-color="#7F56D9"/>
</linearGradient>
<linearGradient id="paint41_linear_35_592" x1="259.053" y1="544.989" x2="265.334" y2="580.521" gradientUnits="userSpaceOnUse">
<stop stop-color="#42307D"/>
<stop offset="1" stop-color="#7F56D9"/>
</linearGradient>
<linearGradient id="paint42_linear_35_592" x1="279.453" y1="562.397" x2="278.322" y2="569.547" gradientUnits="userSpaceOnUse">
<stop stop-color="#42307D"/>
<stop offset="1" stop-color="#7F56D9"/>
</linearGradient>
<linearGradient id="paint43_linear_35_592" x1="787.499" y1="631.763" x2="968.433" y2="632.199" gradientUnits="userSpaceOnUse">
<stop stop-color="#42307D"/>
<stop offset="1" stop-color="#7F56D9"/>
</linearGradient>
<linearGradient id="paint44_linear_35_592" x1="888.081" y1="654.3" x2="921.957" y2="665.624" gradientUnits="userSpaceOnUse">
<stop stop-color="#42307D"/>
<stop offset="1" stop-color="#7F56D9"/>
</linearGradient>
<linearGradient id="paint45_linear_35_592" x1="957.185" y1="592.688" x2="1052.94" y2="601.668" gradientUnits="userSpaceOnUse">
<stop stop-color="#42307D"/>
<stop offset="1" stop-color="#7F56D9"/>
</linearGradient>
<linearGradient id="paint46_linear_35_592" x1="324.311" y1="590.999" x2="285.674" y2="712.574" gradientUnits="userSpaceOnUse">
<stop stop-color="#42307D"/>
<stop offset="1" stop-color="#7F56D9"/>
</linearGradient>
<linearGradient id="paint47_linear_35_592" x1="807.191" y1="334.494" x2="851.93" y2="319.585" gradientUnits="userSpaceOnUse">
<stop stop-color="#42307D"/>
<stop offset="1" stop-color="#7F56D9"/>
</linearGradient>
<linearGradient id="paint48_linear_35_592" x1="716.895" y1="478.291" x2="793.594" y2="502.446" gradientUnits="userSpaceOnUse">
<stop stop-color="#42307D"/>
<stop offset="1" stop-color="#7F56D9"/>
</linearGradient>
<linearGradient id="paint49_linear_35_592" x1="372.707" y1="387.632" x2="476.033" y2="320.765" gradientUnits="userSpaceOnUse">
<stop stop-color="#42307D"/>
<stop offset="1" stop-color="#7F56D9"/>
</linearGradient>
<linearGradient id="paint50_linear_35_592" x1="827.611" y1="488" x2="871.58" y2="582.139" gradientUnits="userSpaceOnUse">
<stop stop-color="#42307D"/>
<stop offset="1" stop-color="#7F56D9"/>
</linearGradient>
<linearGradient id="paint51_linear_35_592" x1="851.499" y1="419" x2="893.794" y2="467.617" gradientUnits="userSpaceOnUse">
<stop stop-color="#42307D"/>
<stop offset="1" stop-color="#7F56D9"/>
</linearGradient>
<linearGradient id="paint52_linear_35_592" x1="157.904" y1="597.392" x2="222.335" y2="596.319" gradientUnits="userSpaceOnUse">
<stop stop-color="#42307D"/>
<stop offset="1" stop-color="#7F56D9"/>
</linearGradient>
<linearGradient id="paint53_linear_35_592" x1="243.5" y1="273.567" x2="307.93" y2="272.495" gradientUnits="userSpaceOnUse">
<stop stop-color="#42307D"/>
<stop offset="1" stop-color="#7F56D9"/>
</linearGradient>
<linearGradient id="paint54_linear_35_592" x1="69.4979" y1="602.999" x2="61.9776" y2="707.507" gradientUnits="userSpaceOnUse">
<stop stop-color="#42307D"/>
<stop offset="1" stop-color="#7F56D9"/>
</linearGradient>
<linearGradient id="paint55_linear_35_592" x1="954.506" y1="322.583" x2="956.724" y2="450.693" gradientUnits="userSpaceOnUse">
<stop stop-color="#42307D"/>
<stop offset="1" stop-color="#7F56D9"/>
</linearGradient>
<linearGradient id="paint56_linear_35_592" x1="190.5" y1="419" x2="214.618" y2="446.53" gradientUnits="userSpaceOnUse">
<stop stop-color="#42307D"/>
<stop offset="1" stop-color="#7F56D9"/>
</linearGradient>
<linearGradient id="paint57_linear_35_592" x1="793.5" y1="450" x2="817.618" y2="477.53" gradientUnits="userSpaceOnUse">
<stop stop-color="#42307D"/>
<stop offset="1" stop-color="#7F56D9"/>
</linearGradient>
<linearGradient id="paint58_linear_35_592" x1="895.5" y1="579" x2="919.618" y2="606.53" gradientUnits="userSpaceOnUse">
<stop stop-color="#42307D"/>
<stop offset="1" stop-color="#7F56D9"/>
</linearGradient>
<linearGradient id="paint59_linear_35_592" x1="90.3089" y1="526.935" x2="90.6728" y2="500.968" gradientUnits="userSpaceOnUse">
<stop stop-color="#42307D"/>
<stop offset="1" stop-color="#7F56D9"/>
</linearGradient>
<linearGradient id="paint60_linear_35_592" x1="164.231" y1="587.163" x2="206.405" y2="448.404" gradientUnits="userSpaceOnUse">
<stop stop-color="#42307D"/>
<stop offset="1" stop-color="#7F56D9"/>
</linearGradient>
<linearGradient id="paint61_linear_35_592" x1="141.294" y1="557.723" x2="142.935" y2="534.59" gradientUnits="userSpaceOnUse">
<stop stop-color="#42307D"/>
<stop offset="1" stop-color="#7F56D9"/>
</linearGradient>
<linearGradient id="paint62_linear_35_592" x1="190.888" y1="556.386" x2="189.406" y2="538.574" gradientUnits="userSpaceOnUse">
<stop stop-color="#42307D"/>
<stop offset="1" stop-color="#7F56D9"/>
</linearGradient>
<linearGradient id="paint63_linear_35_592" x1="206.121" y1="531.315" x2="210.416" y2="520.919" gradientUnits="userSpaceOnUse">
<stop stop-color="#42307D"/>
<stop offset="1" stop-color="#7F56D9"/>
</linearGradient>
<linearGradient id="paint64_linear_35_592" x1="158.295" y1="473.461" x2="166.08" y2="446.359" gradientUnits="userSpaceOnUse">
<stop stop-color="#42307D"/>
<stop offset="1" stop-color="#7F56D9"/>
</linearGradient>
<linearGradient id="paint65_linear_35_592" x1="470.499" y1="23.0577" x2="573.602" y2="98.6574" gradientUnits="userSpaceOnUse">
<stop stop-color="#42307D"/>
<stop offset="1" stop-color="#7F56D9"/>
</linearGradient>
</defs>
</svg>
